# xmcd
#
# Track frame offsets:
#	150
#	15648
#	34301
#	49294
#	64536
#	79364
#	97109
#	110742
#	127143
#	139779
#	155626
#	171555
#	188934
#	203842
#	217197
#	236404
#	251270
#	269630
#	284834
#	301065
#	317692
#
# Disc length: 4463 seconds
#
# Revision: 2
# Processed by: cddbd v1.5.2PL0 Copyright (c) Steve Scherf et al.
# Submitted via: EasyCDDAExtractor 11.5.0.1
#
DISCID=4c116d15
DTITLE=Various Artist - NCT 077
DYEAR=2005
DGENRE=Country
TTITLE0=Alan Jackson  - USA Today
TTITLE1=Sugarland - Just Might (Make Me Believe)
TTITLE2=Martina McBride - I Never Promised You A Rose Garden
TTITLE3=Patty Loveless - Keep Your Distance
TTITLE4=Steve Holy - It's My Time (I Can Waste It If I Want To)
TTITLE5=Reba McEntire - You're Gonna Be (Always Loved By Me)
TTITLE6=Jamie Johnson - The Dollar
TTITLE7=Billy Joe Shaver ft. Big and Rich - Live Forever
TTITLE8=Amber Dotson - I Ain't Your Mama
TTITLE9=Cory Morrow - Beat Of Your Heart
TTITLE10=Rodney Crowell - Say You Love Me
TTITLE11=Doug Stone - Everything
TTITLE12=Darryl Perry - You Will
TTITLE13=Trick Pony - Ain't Wastin' Good Whiskey On You
TTITLE14=Luke Stringland - American By God's Amazing Grace
TTITLE15=Morrison Williams - My Girl Friday
TTITLE16=Randy Rogers Band - Down and Out
TTITLE17=Jason Boland and the Stragglers - (My Baby Loves Me) When I'm Stoned
TTITLE18=Stoney Larue - Walk Away
TTITLE19=Dwight Yoakum - Blame The Vain
TTITLE20=Shawn King - In My Own Back Yard
EXTD=
EXTT0=
EXTT1=
EXTT2=
EXTT3=
EXTT4=
EXTT5=
EXTT6=
EXTT7=
EXTT8=
EXTT9=
EXTT10=
EXTT11=
EXTT12=
EXTT13=
EXTT14=
EXTT15=
EXTT16=
EXTT17=
EXTT18=
EXTT19=
EXTT20=
PLAYORDER=
